<?xml version="1.0" encoding="UTF-8"?><svg id="a" xmlns="http://www.w3.org/2000/svg" viewBox="0 0 5000 2030"><path d="m1536.94,945.47l23.5-29.07c14.82,17.33,33.84,24.88,49.5,24.88,19.02,0,28.54-8.66,28.54-20.96,0-14.54-10.64-19.85-34.68-27.95-29.94-10.63-59.86-24.6-59.86-62.04,0-31.86,27.97-56.17,63.78-56.73,24.61-.29,47.55,8.94,66.85,25.15l-22.66,29.63c-16.5-13.7-31.05-19.57-43.36-19.57-13.71,0-23.77,7.27-23.77,19.85-.29,12.29,10.63,17.61,33.29,26.55,34.41,13.41,61.54,22.35,61.54,60.64,0,43.32-37.77,60.92-70.21,60.92-25.73,0-51.75-9.78-72.45-31.3Z" fill="#fff"/><path d="m1715.1,931.5v-63.15h-16.22v-30.18h16.22v-44.71l36.37-3.91v48.63h37.2v30.18h-37.2v58.12c0,11.74,3.64,17.33,12.02,17.33,4.48,0,11.19-1.67,17.35-4.75l9.51,29.34c-8.95,4.75-17.9,8.39-36.36,8.39-23.5,0-38.89-14.54-38.89-45.28Z" fill="#fff"/><path d="m1946.69,838.16v136.38h-34.69v-16.49h-.83c-9.24,12.01-23.22,18.73-40.84,18.73-37.77,0-65.18-27.95-65.18-70.14s27.69-70.7,64.33-70.7c16.23,0,30.2,5.86,40,17.6h.83v-15.37h36.38Zm-34.97,68.75c0-21.8-14.55-38.29-34.41-38.29s-35.25,14.81-35.25,38.29c0,22.07,14.55,37.17,34.97,37.17,19.02,0,34.68-14.81,34.68-37.17Z" fill="#fff"/><path d="m1988.9,931.5v-63.15h-16.23v-30.18h16.23v-44.71l36.36-3.91v48.63h37.19v30.18h-37.19v58.12c0,11.74,3.63,17.33,12.03,17.33,4.46,0,11.18-1.67,17.33-4.75l9.52,29.34c-8.94,4.75-17.9,8.39-36.36,8.39-23.49,0-38.88-14.54-38.88-45.28Z" fill="#fff"/><path d="m2089.84,796.53c0-12.3,10.35-22.36,22.66-22.36s22.94,10.06,22.94,22.36-10.35,22.35-22.94,22.35-22.66-10.06-22.66-22.35Zm4.2,41.63h36.64v136.38h-36.64v-136.38Z" fill="#fff"/><path d="m2160.88,956.93l17.9-25.43c11.18,10.63,22.94,15.93,37.77,15.93,10.63,0,16.77-4.48,16.77-11.18s-7-9.5-24.9-15.09c-22.37-7.55-41.95-18.16-41.95-44.44,0-24.59,21.25-40.79,49.23-40.79,19.03,0,34.41,5.02,49.8,17.04l-17.62,26.83c-10.63-10.06-22.66-14.54-32.73-14.54-5.87,0-13.42,3.08-13.42,10.35,0,5.59,7.28,9.5,20.7,14.53,29.66,10.89,46.99,17.33,46.99,44.15,0,24.32-17.33,42.48-53.13,42.48-21.83,0-40.28-6.99-55.39-19.85Z" fill="#fff"/><path d="m2303.8,931.5v-63.15h-16.23v-30.18h16.23v-44.71l36.36-3.91v48.63h37.19v30.18h-37.19v58.12c0,11.74,3.63,17.33,12.03,17.33,4.46,0,11.18-1.67,17.33-4.75l9.52,29.34c-8.94,4.75-17.9,8.39-36.36,8.39-23.49,0-38.88-14.54-38.88-45.28Z" fill="#fff"/><path d="m2404.74,796.53c0-12.3,10.35-22.36,22.66-22.36s22.94,10.06,22.94,22.36-10.35,22.35-22.94,22.35-22.66-10.06-22.66-22.35Zm4.2,41.63h36.64v136.38h-36.64v-136.38Z" fill="#fff"/><path d="m2475.79,956.93l17.9-25.43c11.18,10.63,22.94,15.93,37.77,15.93,10.63,0,16.77-4.48,16.77-11.18s-7-9.5-24.9-15.09c-22.37-7.55-41.95-18.16-41.95-44.44,0-24.59,21.25-40.79,49.23-40.79,19.03,0,34.41,5.02,49.8,17.04l-17.62,26.83c-10.63-10.06-22.66-14.54-32.73-14.54-5.87,0-13.42,3.08-13.42,10.35,0,5.59,7.28,9.5,20.7,14.53,29.66,10.89,46.99,17.33,46.99,44.15,0,24.32-17.33,42.48-53.13,42.48-21.83,0-40.28-6.99-55.39-19.85Z" fill="#fff"/><path d="m2670.74,920.33l-19.01,21.51v32.7h-36.65v-205.68h36.65v124.36h.28l48.95-55.05h42.8l-48.12,54.22,48.95,82.16h-40.84l-32.45-54.21h-.56Z" fill="#fff"/><path d="m2833.77,956.93l17.9-25.43c11.18,10.63,22.94,15.93,37.77,15.93,10.63,0,16.77-4.48,16.77-11.18s-7-9.5-24.9-15.09c-22.37-7.55-41.95-18.16-41.95-44.44,0-24.59,21.25-40.79,49.23-40.79,19.03,0,34.41,5.02,49.8,17.04l-17.62,26.83c-10.63-10.06-22.66-14.54-32.73-14.54-5.87,0-13.42,3.08-13.42,10.35,0,5.59,7.28,9.5,20.7,14.53,29.66,10.89,46.99,17.33,46.99,44.15,0,24.32-17.33,42.48-53.13,42.48-21.83,0-40.28-6.99-55.39-19.85Z" fill="#fff"/><path d="m3098.37,918.09h-95.95c4.48,16.2,17.35,26.26,34.97,26.26,14.55.29,25.18-6.14,32.73-15.37l23.77,22.08c-11.75,14.81-31.6,25.71-59.02,25.71-40.01,0-70.22-27.95-70.22-70.71s28.82-70.14,67.7-70.14,66.85,29.06,66.85,69.03c0,4.47,0,10.89-.83,13.13Zm-95.67-26.27h60.15c-3.65-14.25-13.42-23.75-29.38-23.75-14.83,0-26.57,8.1-30.77,23.75Z" fill="#fff"/><path d="m3261.97,893.5v81.04h-36.64v-71.82c0-25.99-9.24-34.1-26.29-34.1-18.47,0-31.05,12.85-31.05,37.17v68.75h-36.65v-136.38h36.65v17.61h.56c11.18-13.13,26.85-19.84,43.64-19.84,29.36,0,49.78,15.65,49.78,57.57Z" fill="#fff"/><path d="m3303.35,931.5v-63.15h-16.23v-30.18h16.23v-44.71l36.36-3.91v48.63h37.19v30.18h-37.19v58.12c0,11.74,3.63,17.33,12.03,17.33,4.46,0,11.18-1.67,17.33-4.75l9.52,29.34c-8.94,4.75-17.9,8.39-36.36,8.39-23.49,0-38.88-14.54-38.88-45.28Z" fill="#fff"/><path d="m3487.93,836.21v39.68c-3.63-.28-7.55-.28-9.52-.28-22.66,0-34.95,15.37-34.95,35.48v63.44h-36.65v-136.38h36.65v20.12h.28c10.35-14.53,25.16-22.35,41.4-22.35,1.11,0,2.24,0,2.8.28Z" fill="#fff"/><path d="m3645.4,838.16v136.38h-34.69v-16.49h-.83c-9.24,12.01-23.22,18.73-40.84,18.73-37.77,0-65.18-27.95-65.18-70.14s27.7-70.7,64.33-70.7c16.23,0,30.21,5.86,40.01,17.6h.83v-15.37h36.38Zm-34.97,68.75c0-21.8-14.55-38.29-34.41-38.29s-35.23,14.81-35.23,38.29c0,22.07,14.53,37.17,34.95,37.17,19.03,0,34.69-14.81,34.69-37.17Z" fill="#fff"/><path d="m3685.66,768.86h36.64v205.68h-36.64v-205.68Z" fill="#fff"/><path d="m3906.61,906.63c0,42.2-27.42,70.14-65.45,70.14-18.2,0-32.17-6.71-41.69-18.73h-.83v16.49h-34.97v-205.68h36.65v84.67h.83c10.07-11.74,24.33-17.6,41.12-17.6,36.64,0,64.33,29.34,64.33,70.7Zm-37.19.28c0-23.47-15.38-38.29-34.97-38.29-20.98,0-35.8,16.49-35.8,38.29s15.94,37.17,35.8,37.17,34.97-15.09,34.97-37.17Z" fill="#fff"/><path d="m4057.92,838.16l-73.57,191.71h-37.47l24.05-63.72-54.26-127.99h38.04l33.56,84.4h.28l31.32-84.4h38.04Z" fill="#fff"/><path d="m4165.03,836.21v39.68c-3.63-.28-7.55-.28-9.52-.28-22.66,0-34.95,15.37-34.95,35.48v63.44h-36.65v-136.38h36.65v20.12h.28c10.35-14.53,25.18-22.35,41.4-22.35,1.11,0,2.24,0,2.8.28Z" fill="#fff"/><path d="m4322.5,838.16v136.38h-34.69v-16.49h-.83c-9.24,12.01-23.22,18.73-40.84,18.73-37.77,0-65.18-27.95-65.18-70.14s27.7-70.7,64.33-70.7c16.23,0,30.21,5.86,40.01,17.6h.83v-15.37h36.38Zm-34.97,68.75c0-21.8-14.55-38.29-34.41-38.29s-35.23,14.81-35.23,38.29c0,22.07,14.53,37.17,34.95,37.17,19.03,0,34.69-14.81,34.69-37.17Zm-63.22-110.38c0-15.93,12.59-29.34,29.94-29.34s30.49,12.29,30.49,29.34c0,15.93-12.31,29.06-30.49,29.06-16.22,0-29.94-12.29-29.94-29.06Zm19.59-.29c0,5.87,4.48,10.35,10.35,10.35s10.63-4.75,10.63-10.63-4.76-10.34-10.63-10.34-10.35,5.03-10.35,10.62Z" fill="#fff"/><path d="m1542.43,1247.41l11.72-13.81c10.68,13.18,26.81,19.67,41.27,19.67,18.22,0,30.37-8.58,30.37-22.81,0-16.74-13.41-21.14-33.3-28.67-22-8.17-44.41-17.58-44.41-43.32,0-22.18,20.11-39.14,45.46-39.34,16.55,0,32.89,6.07,47.13,17.37l-11.1,14.23c-11.74-9.83-24.93-14.65-36.03-14.65-13.82,0-26.4,7.54-26.4,21.56-.2,14.23,13.2,19.25,31.64,26.57,25.14,9.63,46.08,16.54,46.08,44.37s-24.09,41.85-49.64,41.85c-18.65,0-37.91-7.12-52.78-23.02Z" fill="#fff"/><path d="m1676.14,1238.83v-56.92h-12.99v-14.64h12.99v-34.74l16.97-1.89v36.63h33.93v14.64h-33.93v54.42c0,12.14,2.93,18.2,12.56,18.2,6.07,0,12.36-2.51,17.17-5.23l4.61,14.86c-5.66,3.14-12.78,6.28-24.72,6.28-18.22,0-26.6-11.09-26.6-31.61Z" fill="#fff"/><path d="m1845.02,1167.27v101.91h-16.34v-16.11h-.2c-8.17,10.88-20.74,17.37-35.62,17.37-28.28,0-50.06-20.3-50.06-51.48s20.95-52.95,49.86-52.95c14.04,0,26.6,5.86,35.19,16.53h.2v-15.27h16.97Zm-16.34,51.69c0-20.92-14.45-37.25-34.14-37.25s-34.56,14.64-34.56,37.25c0,20.51,13.62,36,34.36,36,18.43,0,34.35-14.45,34.35-36Z" fill="#fff"/><path d="m1881.74,1238.83v-56.92h-12.99v-14.64h12.99v-34.74l16.96-1.89v36.63h33.94v14.64h-33.94v54.42c0,12.14,2.94,18.2,12.57,18.2,6.08,0,12.36-2.51,17.18-5.23l4.61,14.86c-5.66,3.14-12.78,6.28-24.72,6.28-18.23,0-26.61-11.09-26.61-31.61Z" fill="#fff"/><path d="m1955.5,1136.5c0-6.49,5.25-11.93,12.16-11.93s12.15,5.44,12.15,11.93-5.44,11.92-12.15,11.92-12.16-5.23-12.16-11.92Zm3.56,30.76h16.97v101.91h-16.97v-101.91Z" fill="#fff"/><path d="m2004.34,1255.79l8.81-12.76c7.95,7.33,16.76,12.14,31.21,12.14,12.15,0,19.26-6.28,19.26-13.6,0-8.8-9.42-11.73-24.29-16.74-16.55-5.86-30.59-12.77-30.59-31.39,0-15.7,14.26-27.42,33.73-27.42,12.15,0,23.67,3.35,34.99,12.55l-8.8,13.39c-9.01-7.74-18.44-10.46-27.02-10.46-7.75,0-15.71,4.61-15.71,11.93,0,7.95,8.39,11.72,19.28,15.9,21.58,8.37,35.82,11.93,35.61,32.02,0,15.9-11.93,29.09-36.44,29.09-16.76,0-29.97-5.65-40.02-14.65Z" fill="#fff"/><path d="m2111.01,1238.83v-56.92h-12.98v-14.64h12.98v-34.74l16.97-1.89v36.63h33.94v14.64h-33.94v54.42c0,12.14,2.94,18.2,12.57,18.2,6.08,0,12.36-2.51,17.18-5.23l4.61,14.86c-5.66,3.14-12.78,6.28-24.72,6.28-18.23,0-26.62-11.09-26.62-31.61Z" fill="#fff"/><path d="m2184.78,1136.5c0-6.49,5.25-11.93,12.16-11.93s12.15,5.44,12.15,11.93-5.44,11.92-12.15,11.92-12.16-5.23-12.16-11.92Zm3.56,30.76h16.97v101.91h-16.97v-101.91Z" fill="#fff"/><path d="m2236.13,1218.32c0-30.76,21.16-52.32,51.11-52.32,15.3,0,31.01,6.28,41.07,18.2l-11.74,10.26c-6.28-7.74-16.33-12.76-28.48-12.76-20.53,0-34.77,15.07-34.77,36.62s14.24,36.63,34.77,36.63c11.93,0,22.61-5.23,28.91-12.14l11.72,10.46c-8.58,9.63-23.87,17.17-42.1,17.17-29.33,0-50.49-21.14-50.49-52.11Z" fill="#fff"/><path d="m2346.18,1255.79l8.81-12.76c7.95,7.33,16.76,12.14,31.21,12.14,12.15,0,19.26-6.28,19.26-13.6,0-8.8-9.42-11.73-24.29-16.74-16.55-5.86-30.57-12.77-30.57-31.39,0-15.7,14.24-27.42,33.71-27.42,12.15,0,23.67,3.35,34.99,12.55l-8.8,13.39c-9.01-7.74-18.44-10.46-27.02-10.46-7.75,0-15.71,4.61-15.71,11.93,0,7.95,8.39,11.72,19.28,15.9,21.58,8.37,35.82,11.93,35.61,32.02,0,15.9-11.93,29.09-36.44,29.09-16.76,0-29.97-5.65-40.02-14.65Z" fill="#fff"/><path d="m2634.69,1120.59v148.59h-18.64l-83.38-117.19h-.41v117.19h-18.23v-148.59h18.02l84,118.45h.41v-118.45h18.23Z" fill="#fff"/><path d="m2666.62,1218.32c0-29.29,20.94-52.32,52.79-52.32,29.95,0,52.37,21.35,52.37,52.32s-22.41,52.11-52.37,52.11c-31.85,0-52.79-22.81-52.79-52.11Zm87.97,0c0-21.76-15.5-36.62-35.18-36.62-21.37,0-35.61,16.33-35.61,36.62s14.45,36.63,35.61,36.63c19.68,0,35.18-15.08,35.18-36.63Z" fill="#fff"/><path d="m2855.84,1166.21v18.84c-2.31-.21-5.04-.42-6.7-.42-19.28,0-31.01,14.86-31.01,35.36v49.18h-16.95v-101.91h16.95v17.99h.21c7.54-12.14,19.49-19.25,33.3-19.25,1.68,0,3.16,0,4.2.2Z" fill="#fff"/><path d="m3017.78,1167.27l-35.4,101.91h-15.92l-23.04-74.29h-.21l-23.25,74.29h-15.5l-35.4-101.91h17.17l25.98,76.17h.43l23.25-76.17h14.67l23.66,76.17h.43l25.98-76.17h17.17Z" fill="#fff"/><path d="m3132.67,1167.27v101.91h-16.35v-16.11h-.21c-8.16,10.88-20.73,17.37-35.61,17.37-28.27,0-50.06-20.3-50.06-51.48s20.94-52.95,49.85-52.95c14.04,0,26.62,5.86,35.2,16.53h.21v-15.27h16.97Zm-16.35,51.69c0-20.92-14.45-37.25-34.14-37.25s-34.56,14.64-34.56,37.25c0,20.51,13.6,36,34.35,36,18.43,0,34.35-14.45,34.35-36Z" fill="#fff"/><path d="m3256.33,1167.27l-57.61,143.35h-18.02l18.23-45.62-43.15-97.73h18.21l33.11,77.64h.41l30.8-77.64h18.02Z" fill="#fff"/><path d="m1043.4,1071.84l283.03-163.27c-44.48-131.65-168.83-226.58-315.62-226.58-184.08,0-333.31,149.09-333.31,333,0,25.33,3.08,49.91,8.45,73.62l313.51-180.56,43.94,163.78Z" fill="#fff"/><path d="m1022.6,1121.98l-43.94-163.81-283.47,163.25c44.48,131.65,168.83,226.58,315.62,226.58,184.08,0,333.31-149.09,333.31-333,0-25.33-3.08-49.89-8.44-73.6l-313.08,180.58Z" fill="#fff"/></svg>
